<?xml version="1.0"?>
<svg xmlns="http://www.w3.org/2000/svg" xmlns:xlink="http://www.w3.org/1999/xlink" version="1.1" id="Capa_1" x="0px" y="0px" viewBox="0 0 508 508" style="enable-background:new 0 0 508 508;" xml:space="preserve" width="50px" height="60px"><g><g>
	<g>
		<path d="M417.9,196.6h-16.4V0H163.9v13l-13-13h-44.4v196.6H90.1v81.9h122l-17.5,163.3C190.9,462.4,207,508,254,508    c46.2,0,63.2-44.2,59.4-66.1l-17.5-163.3h122V196.6z M344.1,16.4v61.5c0,6.8-5.5,12.3-12.3,12.3s-12.3-5.5-12.3-12.3V16.4H344.1z     M278.6,16.4h24.6v36.9h0c0,6.8-5.5,12.3-12.3,12.3s-12.3-5.5-12.3-12.3V16.4z M122.9,16.4h21.2l36.2,36.2V16.4h81.9v36.9    c0,15.8,12.9,28.7,28.7,28.7c4.5,0,8.6-1.1,12.4-2.9c0.6,15.3,13.1,27.5,28.6,27.5c15.8,0,28.7-12.9,28.7-28.7V16.4h24.6v180.3    H122.9V16.4z M297.1,443.7c4.3,22.1-18.4,48.9-43.1,48c-37.6-1.5-44.4-35.8-43.1-48l17.7-165.1h50.8L297.1,443.7z M401.5,262.2    h-295V213h295V262.2z" data-original="#000000" class="active-path" data-old_color="#000000" fill="#FFFFFF"/>
	</g>
</g><g>
	<g>
		<path d="M254,426c-13.6,0-24.6,11-24.6,24.6c0,13.6,11,24.6,24.6,24.6c13.6,0,24.6-11,24.6-24.6C278.6,437,267.6,426,254,426z     M254,458.9c-4.5,0-8.2-3.7-8.2-8.2c0-4.6,3.7-8.2,8.2-8.2s8.2,3.7,8.2,8.2S258.5,458.9,254,458.9z" data-original="#000000" class="active-path" data-old_color="#000000" fill="#FFFFFF"/>
	</g>
</g><g>
	<g>
		<rect x="245.8" y="229.4" width="16.4" height="16.4" data-original="#000000" class="active-path" data-old_color="#000000" fill="#FFFFFF"/>
	</g>
</g><g>
	<g>
		<rect x="278.6" y="229.4" width="16.4" height="16.4" data-original="#000000" class="active-path" data-old_color="#000000" fill="#FFFFFF"/>
	</g>
</g><g>
	<g>
		<rect x="213" y="229.4" width="16.4" height="16.4" data-original="#000000" class="active-path" data-old_color="#000000" fill="#FFFFFF"/>
	</g>
</g></g> </svg>
